# Blender 4.4.1
# www.blender.org
mtllib bossEnemy.mtl
o Cube
v 3.000000 3.000000 -3.000000
v 3.000000 -3.000000 -3.000000
v 3.000000 3.000000 3.000000
v 3.000000 -3.000000 3.000000
v -3.000000 3.000000 -3.000000
v -3.000000 -3.000000 -3.000000
v -3.000000 3.000000 3.000000
v -3.000000 -3.000000 3.000000
v 0.000000 -3.000000 -3.000000
v 0.000000 3.000000 3.000000
v 0.000000 -3.000000 3.000000
v 0.000000 3.000000 -3.000000
v -1.500000 -3.000000 -3.000000
v -1.500000 3.000000 3.000000
v -1.500000 -3.000000 3.000000
v -1.500000 3.000000 -3.000000
v 1.500000 -3.000000 3.000000
v 1.500000 3.000000 -3.000000
v 1.500000 -3.000000 -3.000000
v 1.500000 3.000000 3.000000
v 3.000000 -0.000000 -3.000000
v -3.000000 0.000000 3.000000
v 3.000000 0.000000 3.000000
v -3.000000 -0.000000 -3.000000
v 0.000000 -0.000000 -3.000000
v 0.000000 0.000000 3.000000
v -1.500000 -0.000000 -3.000000
v -1.500000 0.000000 3.000000
v 1.500000 0.000000 3.000000
v 1.500000 -0.000000 -3.000000
v -3.000000 1.500000 3.000000
v 3.000000 1.500000 -3.000000
v 3.000000 1.500000 3.000000
v -3.000000 1.500000 -3.000000
v 0.000000 1.500000 -3.000000
v 0.000000 1.500000 3.000000
v -1.500000 1.500000 -3.000000
v -1.500000 1.500000 3.000000
v 1.500000 1.500000 3.000000
v 1.500000 1.500000 -3.000000
v 3.000000 -1.500000 -3.000000
v 3.000000 -1.500000 3.000000
v -3.000000 -1.500000 -3.000000
v 0.000000 -1.500000 -3.000000
v 0.000000 -1.500000 3.000000
v -1.500000 -1.500000 -3.000000
v -1.500000 -1.500000 3.000000
v 1.500000 -1.500000 3.000000
v 1.500000 -1.500000 -3.000000
v -3.000000 -1.500000 3.000000
v -3.000000 -3.000000 0.000000
v 3.000000 3.000000 -0.000000
v -3.000000 3.000000 -0.000000
v 3.000000 -3.000000 0.000000
v -1.500000 -3.000000 0.000000
v -1.500000 3.000000 -0.000000
v 1.500000 3.000000 -0.000000
v 1.500000 -3.000000 0.000000
v 4.500000 -0.000000 -3.000000
v 3.000000 1.500000 -0.000000
v -3.000000 1.500000 -0.000000
v -3.000000 -1.500000 0.000000
v 3.000000 -1.500000 0.000000
v -3.000000 -3.000000 1.500000
v 3.000000 3.000000 1.500000
v 0.000000 -3.000000 1.500000
v 0.000000 3.000000 1.500000
v -1.500000 -3.000000 1.500000
v -1.500000 3.000000 1.500000
v 1.500000 3.000000 1.500000
v 1.500000 -3.000000 1.500000
v 3.000000 0.000000 1.500000
v 3.000000 1.500000 1.500000
v 3.000000 -1.500000 1.500000
v -3.000000 3.000000 1.500000
v 3.000000 -3.000000 1.500000
v -3.000000 0.000000 1.500000
v -3.000000 1.500000 1.500000
v -3.000000 -1.500000 1.500000
v -3.000000 3.000000 -1.500000
v 3.000000 -3.000000 -1.500000
v -3.000000 -0.000000 -1.500000
v -3.000000 1.500000 -1.500000
v -3.000000 -1.500000 -1.500000
v -3.000000 -3.000000 -1.500000
v 3.000000 3.000000 -1.500000
v 0.000000 -3.000000 -1.500000
v 0.000000 3.000000 -1.500000
v -1.500000 -3.000000 -1.500000
v -1.500000 3.000000 -1.500000
v 1.500000 3.000000 -1.500000
v 1.500000 -3.000000 -1.500000
v 3.000000 -0.000000 -1.500000
v 3.000000 1.500000 -1.500000
v 3.000000 -1.500000 -1.500000
v 1.500000 -6.000000 -3.000000
v -7.500000 0.000000 1.500000
v 6.000000 1.500000 -1.500000
v 6.000000 1.500000 -0.000000
v 6.000000 -1.500000 -1.500000
v 6.000000 -1.500000 0.000000
v 6.000000 0.000000 1.500000
v 6.000000 1.500000 1.500000
v 6.000000 -1.500000 1.500000
v -6.000000 0.000000 1.500000
v -6.000000 1.500000 1.500000
v -6.000000 1.500000 -0.000000
v -6.000000 -1.500000 1.500000
v -6.000000 -1.500000 0.000000
v 1.500000 -4.500000 -3.000000
v -6.000000 1.500000 -1.500000
v -6.000000 -1.500000 -1.500000
v -1.500000 6.000000 -1.500000
v -1.500000 6.000000 -0.000000
v 1.500000 6.000000 -1.500000
v 1.500000 6.000000 -0.000000
v 0.000000 6.000000 1.500000
v -1.500000 6.000000 1.500000
v 1.500000 6.000000 1.500000
v 0.000000 7.500000 -1.500001
v -1.500000 -6.000000 -1.500000
v -1.500000 -6.000000 0.000000
v 1.500000 -6.000000 -1.500000
v 1.500000 -6.000000 0.000000
v 0.000000 -6.000000 1.500000
v -1.500000 -6.000000 1.500000
v 1.500000 -6.000000 1.500000
v 1.500000 -4.500000 1.500000
v 0.000000 -4.500000 1.500000
v 0.000000 -4.500000 -1.500000
v 1.500000 -4.500000 -1.500000
v 1.500000 -4.500000 0.000000
v -1.500000 -4.500000 1.500000
v -1.500000 -4.500000 0.000000
v -1.500000 -4.500000 -1.500000
v -4.500000 -1.500000 1.500000
v -4.500000 0.000000 1.500000
v -4.500000 1.500000 -1.500000
v -4.500000 -0.000000 -1.500000
v -4.500000 -1.500000 0.000000
v -4.500000 1.500000 -0.000000
v -4.500000 -1.500000 -1.500000
v -4.500000 1.500000 1.500000
v 0.000000 4.522059 1.500000
v 1.500000 4.522059 -1.500000
v 1.500000 4.522059 1.500000
v 1.500000 4.522059 -0.000000
v -1.500000 4.522059 1.500000
v -1.500000 4.522059 -0.000000
v -1.500000 4.522059 -1.500000
v 0.000000 4.522059 -1.500000
v 4.500000 1.500000 -1.500000
v 4.500000 1.500000 -0.000000
v 4.500000 -1.500000 -1.500000
v 4.500000 -0.000000 -1.500000
v 4.500000 -1.500000 1.500000
v 4.500000 0.000000 1.500000
v 4.500000 1.500000 1.500000
v 4.500000 -1.500000 0.000000
v 7.500000 -0.000000 -1.500000
v 7.500000 0.000000 0.000000
v 7.500000 1.500000 -1.500000
v 7.500000 1.500000 -0.000000
v 7.500000 -1.500000 -1.500000
v 7.500000 -1.500000 0.000000
v 7.500000 0.000000 1.500000
v 7.500000 1.500000 1.500000
v 7.500000 -1.500000 1.500000
v -7.500000 0.000000 0.000000
v -7.500000 1.500000 1.500000
v -7.500000 1.500000 -0.000000
v -7.500000 -1.500000 1.500000
v -7.500000 -1.500000 0.000000
v -7.500000 -0.000000 -1.500000
v -7.500000 1.500000 -1.500000
v -7.500000 -1.500000 -1.500000
v 0.000000 -7.500000 -1.499999
v 0.000000 -7.500000 0.000001
v -1.500000 -7.500000 -1.499999
v -1.500000 -7.500000 0.000001
v 1.500000 -7.500000 -1.499999
v 1.500000 -7.500000 0.000001
v 0.000000 -6.750000 0.750001
v -1.500000 -6.750000 0.750001
v 1.500000 -6.750000 0.750001
v 0.000000 7.500000 -0.000001
v -1.500000 7.500000 -1.500001
v -1.500000 7.500000 -0.000001
v 1.500000 7.500000 -1.500001
v 1.500000 7.500000 -0.000001
v 0.000000 6.750000 0.749999
v -1.500000 6.750000 0.749999
v 1.500000 6.750000 0.749999
v 1.500000 4.522059 -3.000000
v 1.500000 6.000000 -3.000000
v 1.500000 7.500000 -3.000000
v 0.000000 6.000000 -3.000000
v 0.000000 7.500000 -3.000000
v -1.500000 7.500000 -3.000000
v -1.500000 6.000000 -3.000000
v -1.500000 4.522059 -3.000000
v 0.000000 4.522059 -3.000000
v 6.000000 -0.000000 -3.000000
v -4.500000 -0.000000 -3.000000
v -6.000000 -0.000000 -3.000000
v 7.500000 -1.500000 -3.000000
v 6.000000 -1.500000 -3.000000
v 7.500000 -0.000000 -3.000000
v 6.000000 1.500000 -3.000000
v -6.000000 1.500000 -3.000000
v -6.000000 -1.500000 -3.000000
v -4.500000 -1.500000 -3.000000
v -4.500000 1.500000 -3.000000
v 4.500000 1.500000 -3.000000
v 4.500000 -1.500000 -3.000000
v 7.500000 1.500000 -3.000000
v -7.500000 1.500000 -3.000000
v -7.500000 -0.000000 -3.000000
v -7.500000 -1.500000 -3.000000
v 0.000000 -6.000000 -3.000000
v -1.500000 -6.000000 -3.000000
v 0.000000 -4.500000 -3.000000
v -1.500000 -4.500000 -3.000000
v 0.000000 -7.500000 -3.000000
v -1.500000 -7.500000 -3.000000
v 1.500000 -7.500000 -3.000000
vn -0.0000 1.0000 -0.0000
vn -0.0000 -0.0000 1.0000
vn -1.0000 -0.0000 -0.0000
vn -0.0000 -1.0000 -0.0000
vn 1.0000 -0.0000 -0.0000
vn -0.0000 -0.0000 -1.0000
vn -0.0000 0.7071 0.7071
vn -0.0000 -0.7071 0.7071
vt 0.875000 0.687500
vt 0.812500 0.750000
vt 0.812500 0.687500
vt 0.625000 0.937500
vt 0.562500 1.000000
vt 0.562500 0.937500
vt 0.625000 0.187500
vt 0.562500 0.250000
vt 0.562500 0.187500
vt 0.375000 0.687500
vt 0.312500 0.750000
vt 0.312500 0.687500
vt 0.625000 0.687500
vt 0.562500 0.750000
vt 0.562500 0.687500
vt 0.625000 0.437500
vt 0.562500 0.500000
vt 0.562500 0.437500
vt 0.625000 0.312500
vt 0.562500 0.375000
vt 0.562500 0.312500
vt 0.250000 0.687500
vt 0.187500 0.750000
vt 0.187500 0.687500
vt 0.625000 0.812500
vt 0.562500 0.875000
vt 0.562500 0.812500
vt 0.750000 0.687500
vt 0.687500 0.750000
vt 0.687500 0.687500
vt 0.125000 0.750000
vt 0.125000 0.687500
vt 0.625000 0.250000
vt 0.625000 0.875000
vt 0.750000 0.750000
vt 0.625000 0.750000
vt 0.625000 0.375000
vt 0.250000 0.750000
vt 0.500000 0.375000
vt 0.437500 0.437500
vt 0.437500 0.375000
vt 0.500000 0.750000
vt 0.437500 0.812500
vt 0.437500 0.750000
vt 0.500000 0.875000
vt 0.437500 0.937500
vt 0.437500 0.875000
vt 0.500000 0.250000
vt 0.437500 0.312500
vt 0.437500 0.250000
vt 0.500000 0.812500
vt 0.500000 0.312500
vt 0.500000 0.437500
vt 0.437500 0.500000
vt 0.500000 0.687500
vt 0.437500 0.687500
vt 0.500000 0.187500
vt 0.437500 0.187500
vt 0.500000 0.937500
vt 0.437500 1.000000
vt 0.500000 0.500000
vt 0.500000 1.000000
vt 0.375000 1.000000
vt 0.375000 0.937500
vt 0.375000 0.250000
vt 0.375000 0.187500
vt 0.375000 0.750000
vt 0.375000 0.437500
vt 0.375000 0.500000
vt 0.375000 0.375000
vt 0.375000 0.312500
vt 0.375000 0.875000
vt 0.375000 0.812500
vt 0.437500 0.562500
vt 0.375000 0.625000
vt 0.375000 0.562500
vt 0.437500 0.062500
vt 0.375000 0.125000
vt 0.375000 0.062500
vt 0.562500 0.125000
vt 0.562500 0.625000
vt 0.437500 0.125000
vt 0.687500 0.562500
vt 0.625000 0.625000
vt 0.625000 0.562500
vt 0.812500 0.625000
vt 0.187500 0.562500
vt 0.125000 0.625000
vt 0.125000 0.562500
vt 0.312500 0.625000
vt 0.312500 0.562500
vt 0.562500 0.562500
vt 0.625000 0.062500
vt 0.562500 0.062500
vt 0.875000 0.562500
vt 0.812500 0.562500
vt 0.625000 0.000000
vt 0.562500 0.000000
vt 0.500000 0.000000
vt 0.437500 0.000000
vt 0.500000 0.062500
vt 0.375000 0.000000
vt 0.437500 0.625000
vt 0.687500 0.625000
vt 0.187500 0.625000
vt 0.250000 0.562500
vt 0.875000 0.625000
vt 0.875000 0.500000
vt 0.812500 0.500000
vt 0.312500 0.500000
vt 0.625000 0.500000
vt 0.250000 0.500000
vt 0.187500 0.500000
vt 0.750000 0.500000
vt 0.687500 0.500000
vt 0.125000 0.500000
vt 0.750000 0.562500
vt 0.500000 0.562500
vt 0.625000 0.125000
vt 0.500000 0.625000
vt 0.500000 0.125000
vt 0.250000 0.625000
vt 0.750000 0.625000
vt 0.875000 0.750000
vt 0.625000 1.000000
s 1
usemtl Material.001
f 75/1/1 14/2/1 69/3/1
f 14/4/2 31/5/2 38/6/2
f 80/7/3 34/8/3 83/9/3
f 76/10/4 17/11/4 71/12/4
f 65/13/5 33/14/5 73/15/5
f 18/16/6 32/17/6 40/18/6
f 16/19/6 35/20/6 37/21/6
f 66/22/4 15/23/4 68/24/4
f 20/25/2 36/26/2 39/27/2
f 67/28/1 20/29/1 70/30/1
f 68/24/4 8/31/4 64/32/4
f 5/33/6 37/21/6 34/8/6
f 10/34/2 38/6/2 36/26/2
f 69/3/1 10/35/1 67/28/1
f 70/30/1 3/36/1 65/13/1
f 33/14/2 20/25/2 39/27/2
f 12/37/6 40/18/6 35/20/6
f 71/12/4 11/38/4 66/22/4
f 25/39/6 49/40/6 44/41/6
f 23/42/2 48/43/2 42/44/2
f 26/45/2 47/46/2 45/47/2
f 24/48/6 46/49/6 43/50/6
f 29/51/2 45/47/2 48/43/2
f 27/52/6 44/41/6 46/49/6
f 30/53/6 41/54/6 49/40/6
f 72/55/5 42/44/5 74/56/5
f 82/57/3 43/50/3 84/58/3
f 28/59/2 50/60/2 47/46/2
f 35/20/6 30/53/6 25/39/6
f 33/14/2 29/51/2 23/42/2
f 36/26/2 28/59/2 26/45/2
f 34/8/6 27/52/6 24/48/6
f 39/27/2 26/45/2 29/51/2
f 37/21/6 25/39/6 27/52/6
f 40/18/6 21/61/6 30/53/6
f 73/15/5 23/42/5 72/55/5
f 83/9/3 24/48/3 82/57/3
f 38/6/2 22/62/2 28/59/2
f 47/46/2 8/63/2 15/64/2
f 84/58/3 6/65/3 85/66/3
f 74/56/5 4/67/5 76/10/5
f 19/68/6 41/54/6 2/69/6
f 46/49/6 9/70/6 13/71/6
f 48/43/2 11/72/2 17/73/2
f 43/50/6 13/71/6 6/65/6
f 45/47/2 15/64/2 11/72/2
f 42/44/2 17/73/2 4/67/2
f 44/41/6 19/68/6 9/70/6
f 95/74/5 54/75/5 81/76/5
f 79/77/3 51/78/3 64/79/3
f 138/9/1 107/80/1 141/80/1
f 158/15/1 99/81/1 153/81/1
f 136/77/4 109/82/4 140/82/4
f 156/56/2 102/55/2 157/55/2
f 133/24/2 125/22/2 129/22/2
f 91/83/1 52/84/1 86/85/1
f 148/3/3 114/86/3 149/86/3
f 89/87/4 51/88/4 85/89/4
f 146/30/2 117/28/2 144/28/2
f 132/90/5 123/91/5 131/91/5
f 86/85/5 60/81/5 94/92/5
f 81/76/4 58/90/4 92/91/4
f 75/93/3 61/80/3 78/94/3
f 80/95/1 56/86/1 90/96/1
f 7/97/3 78/94/3 31/98/3
f 22/99/3 79/77/3 50/100/3
f 31/98/3 77/101/3 22/99/3
f 50/100/3 64/79/3 8/102/3
f 63/103/5 76/10/5 54/75/5
f 153/81/1 98/92/1 152/92/1
f 175/9/3 218/57/3 174/57/3
f 129/22/2 127/12/2 128/12/2
f 57/104/1 65/13/1 52/84/1
f 145/83/5 116/104/5 147/104/5
f 55/105/4 64/32/4 51/88/4
f 147/104/5 119/30/5 146/30/5
f 177/106/4 226/91/4 181/91/4
f 52/84/5 73/15/5 60/81/5
f 54/75/4 71/12/4 58/90/4
f 53/107/1 69/3/1 56/86/1
f 5/108/1 90/96/1 16/109/1
f 2/69/4 92/91/4 19/110/4
f 1/111/5 94/92/5 32/17/5
f 9/112/4 89/87/4 13/113/4
f 12/114/1 91/83/1 18/115/1
f 13/113/4 85/89/4 6/116/4
f 16/109/1 88/117/1 12/114/1
f 18/115/1 86/85/1 1/111/1
f 19/110/4 87/106/4 9/112/4
f 21/61/5 95/74/5 41/54/5
f 32/17/5 93/118/5 21/61/5
f 41/54/5 81/76/5 2/69/5
f 62/82/3 85/66/3 51/78/3
f 137/101/2 108/77/2 136/77/2
f 160/118/5 216/92/5 162/92/5
f 53/119/3 83/9/3 61/80/3
f 100/74/4 165/103/4 101/103/4
f 103/15/1 163/81/1 99/81/1
f 102/55/2 167/15/2 103/15/2
f 155/118/3 215/74/3 154/74/3
f 154/74/4 101/103/4 159/103/4
f 164/74/5 208/118/5 160/118/5
f 157/55/2 103/15/2 158/15/2
f 159/103/4 104/56/4 156/56/4
f 111/9/1 171/80/1 107/80/1
f 100/74/4 206/74/4 164/74/4
f 107/80/1 170/94/1 106/94/1
f 105/101/2 172/77/2 108/77/2
f 152/92/3 59/118/3 155/118/3
f 143/94/2 105/101/2 137/101/2
f 140/82/4 112/58/4 142/58/4
f 141/80/1 106/94/1 143/94/1
f 114/86/3 192/3/3 188/86/3
f 117/28/7 192/3/7 118/3/7
f 113/96/3 201/96/3 150/96/3
f 114/86/3 187/96/3 113/96/3
f 144/28/2 118/3/2 148/3/2
f 151/117/4 194/83/4 145/83/4
f 115/83/5 196/83/5 189/83/5
f 149/86/3 113/96/3 150/96/3
f 130/106/1 223/87/1 135/87/1
f 121/87/3 180/105/3 122/105/3
f 124/90/5 185/12/5 182/90/5
f 126/24/8 183/22/8 125/22/8
f 134/105/3 126/24/3 133/24/3
f 131/91/1 222/106/1 130/106/1
f 135/87/3 122/105/3 134/105/3
f 128/12/5 124/90/5 132/90/5
f 71/12/5 132/90/5 58/90/5
f 89/87/3 134/105/3 55/105/3
f 87/106/6 135/87/6 89/87/6
f 55/105/3 133/24/3 68/24/3
f 92/91/6 130/106/6 87/106/6
f 66/22/2 128/12/2 71/12/2
f 58/90/5 131/91/5 92/91/5
f 68/24/2 129/22/2 66/22/2
f 61/80/1 143/94/1 78/94/1
f 62/82/4 142/58/4 84/58/4
f 78/94/2 137/101/2 77/101/2
f 84/58/6 139/57/6 82/57/6
f 82/57/6 138/9/6 83/9/6
f 77/101/2 136/77/2 79/77/2
f 79/77/4 140/82/4 62/82/4
f 83/9/1 141/80/1 61/80/1
f 56/86/3 150/96/3 90/96/3
f 88/117/6 145/83/6 91/83/6
f 90/96/6 151/117/6 88/117/6
f 67/28/2 148/3/2 69/3/2
f 57/104/5 146/30/5 70/30/5
f 91/83/5 147/104/5 57/104/5
f 70/30/2 144/28/2 67/28/2
f 69/3/3 149/86/3 56/86/3
f 63/103/4 156/56/4 74/56/4
f 72/55/2 158/15/2 73/15/2
f 94/92/6 155/118/6 93/118/6
f 95/74/4 159/103/4 63/103/4
f 93/118/6 154/74/6 95/74/6
f 60/81/1 152/92/1 94/92/1
f 74/56/2 157/55/2 72/55/2
f 73/15/1 153/81/1 60/81/1
f 162/92/5 161/120/5 160/118/5
f 160/118/5 165/103/5 164/74/5
f 163/81/5 166/55/5 161/120/5
f 161/120/5 168/56/5 165/103/5
f 176/58/4 211/58/4 112/58/4
f 104/56/2 166/55/2 102/55/2
f 101/103/4 168/56/4 104/56/4
f 99/81/1 162/92/1 98/92/1
f 170/94/3 169/121/3 97/101/3
f 97/101/3 173/82/3 172/77/3
f 171/80/3 174/57/3 169/121/3
f 169/121/3 176/58/3 173/82/3
f 106/94/2 97/101/2 105/101/2
f 108/77/4 173/82/4 109/82/4
f 139/57/5 213/9/5 138/9/5
f 109/82/4 176/58/4 112/58/4
f 181/91/4 178/122/4 177/106/4
f 177/106/4 180/105/4 179/87/4
f 182/90/8 183/22/8 178/122/8
f 178/122/8 184/24/8 180/105/8
f 125/22/8 185/12/8 127/12/8
f 122/105/3 184/24/3 126/24/3
f 124/90/5 181/91/5 123/91/5
f 181/91/5 96/91/5 123/91/5
f 187/96/1 186/123/1 120/117/1
f 120/117/1 190/104/1 189/83/1
f 188/86/7 191/28/7 186/123/7
f 186/123/7 193/30/7 190/104/7
f 115/83/5 190/104/5 116/104/5
f 189/83/1 198/117/1 120/117/1
f 119/30/7 191/28/7 117/28/7
f 116/104/5 193/30/5 119/30/5
f 197/117/6 196/83/6 195/83/6
f 201/96/6 197/117/6 202/117/6
f 202/117/6 195/83/6 194/83/6
f 200/96/6 198/117/6 197/117/6
f 120/117/1 199/96/1 187/96/1
f 150/96/4 202/117/4 151/117/4
f 145/83/5 195/83/5 115/83/5
f 187/96/3 200/96/3 113/96/3
f 59/118/6 207/74/6 215/74/6
f 204/57/6 210/9/6 213/9/6
f 203/118/6 206/74/6 207/74/6
f 214/92/6 203/118/6 59/118/6
f 205/57/6 217/9/6 210/9/6
f 212/58/6 205/57/6 204/57/6
f 209/92/6 208/118/6 203/118/6
f 211/58/6 218/57/6 205/57/6
f 174/57/3 219/58/3 176/58/3
f 112/58/4 212/58/4 142/58/4
f 138/9/1 210/9/1 111/9/1
f 98/92/1 214/92/1 152/92/1
f 162/92/1 209/92/1 98/92/1
f 111/9/1 217/9/1 175/9/1
f 142/58/5 204/57/5 139/57/5
f 154/74/4 207/74/4 100/74/4
f 110/91/6 220/106/6 222/106/6
f 220/106/6 225/87/6 221/87/6
f 222/106/6 221/87/6 223/87/6
f 96/91/6 224/106/6 220/106/6
f 123/91/5 110/91/5 131/91/5
f 121/87/3 225/87/3 179/87/3
f 179/87/4 224/106/4 177/106/4
f 135/87/3 221/87/3 121/87/3
f 75/1/1 7/124/1 14/2/1
f 14/4/2 7/125/2 31/5/2
f 80/7/3 5/33/3 34/8/3
f 76/10/4 4/67/4 17/11/4
f 65/13/5 3/36/5 33/14/5
f 18/16/6 1/111/6 32/17/6
f 16/19/6 12/37/6 35/20/6
f 66/22/4 11/38/4 15/23/4
f 20/25/2 10/34/2 36/26/2
f 67/28/1 10/35/1 20/29/1
f 68/24/4 15/23/4 8/31/4
f 5/33/6 16/19/6 37/21/6
f 10/34/2 14/4/2 38/6/2
f 69/3/1 14/2/1 10/35/1
f 70/30/1 20/29/1 3/36/1
f 33/14/2 3/36/2 20/25/2
f 12/37/6 18/16/6 40/18/6
f 71/12/4 17/11/4 11/38/4
f 25/39/6 30/53/6 49/40/6
f 23/42/2 29/51/2 48/43/2
f 26/45/2 28/59/2 47/46/2
f 24/48/6 27/52/6 46/49/6
f 29/51/2 26/45/2 45/47/2
f 27/52/6 25/39/6 44/41/6
f 30/53/6 21/61/6 41/54/6
f 72/55/5 23/42/5 42/44/5
f 82/57/3 24/48/3 43/50/3
f 28/59/2 22/62/2 50/60/2
f 35/20/6 40/18/6 30/53/6
f 33/14/2 39/27/2 29/51/2
f 36/26/2 38/6/2 28/59/2
f 34/8/6 37/21/6 27/52/6
f 39/27/2 36/26/2 26/45/2
f 37/21/6 35/20/6 25/39/6
f 40/18/6 32/17/6 21/61/6
f 73/15/5 33/14/5 23/42/5
f 83/9/3 34/8/3 24/48/3
f 38/6/2 31/5/2 22/62/2
f 47/46/2 50/60/2 8/63/2
f 84/58/3 43/50/3 6/65/3
f 74/56/5 42/44/5 4/67/5
f 19/68/6 49/40/6 41/54/6
f 46/49/6 44/41/6 9/70/6
f 48/43/2 45/47/2 11/72/2
f 43/50/6 46/49/6 13/71/6
f 45/47/2 47/46/2 15/64/2
f 42/44/2 48/43/2 17/73/2
f 44/41/6 49/40/6 19/68/6
f 95/74/5 63/103/5 54/75/5
f 79/77/3 62/82/3 51/78/3
f 138/9/1 111/9/1 107/80/1
f 158/15/1 103/15/1 99/81/1
f 136/77/4 108/77/4 109/82/4
f 156/56/2 104/56/2 102/55/2
f 133/24/2 126/24/2 125/22/2
f 91/83/1 57/104/1 52/84/1
f 148/3/3 118/3/3 114/86/3
f 89/87/4 55/105/4 51/88/4
f 146/30/2 119/30/2 117/28/2
f 132/90/5 124/90/5 123/91/5
f 86/85/5 52/84/5 60/81/5
f 81/76/4 54/75/4 58/90/4
f 75/93/3 53/119/3 61/80/3
f 80/95/1 53/107/1 56/86/1
f 7/97/3 75/93/3 78/94/3
f 22/99/3 77/101/3 79/77/3
f 31/98/3 78/94/3 77/101/3
f 50/100/3 79/77/3 64/79/3
f 63/103/5 74/56/5 76/10/5
f 153/81/1 99/81/1 98/92/1
f 175/9/3 217/9/3 218/57/3
f 129/22/2 125/22/2 127/12/2
f 57/104/1 70/30/1 65/13/1
f 145/83/5 115/83/5 116/104/5
f 55/105/4 68/24/4 64/32/4
f 147/104/5 116/104/5 119/30/5
f 177/106/4 224/106/4 226/91/4
f 52/84/5 65/13/5 73/15/5
f 54/75/4 76/10/4 71/12/4
f 53/107/1 75/1/1 69/3/1
f 5/108/1 80/95/1 90/96/1
f 2/69/4 81/76/4 92/91/4
f 1/111/5 86/85/5 94/92/5
f 9/112/4 87/106/4 89/87/4
f 12/114/1 88/117/1 91/83/1
f 13/113/4 89/87/4 85/89/4
f 16/109/1 90/96/1 88/117/1
f 18/115/1 91/83/1 86/85/1
f 19/110/4 92/91/4 87/106/4
f 21/61/5 93/118/5 95/74/5
f 32/17/5 94/92/5 93/118/5
f 41/54/5 95/74/5 81/76/5
f 62/82/3 84/58/3 85/66/3
f 137/101/2 105/101/2 108/77/2
f 160/118/5 208/118/5 216/92/5
f 53/119/3 80/7/3 83/9/3
f 100/74/4 164/74/4 165/103/4
f 103/15/1 167/15/1 163/81/1
f 102/55/2 166/55/2 167/15/2
f 155/118/3 59/118/3 215/74/3
f 154/74/4 100/74/4 101/103/4
f 164/74/5 206/74/5 208/118/5
f 157/55/2 102/55/2 103/15/2
f 159/103/4 101/103/4 104/56/4
f 111/9/1 175/9/1 171/80/1
f 100/74/4 207/74/4 206/74/4
f 107/80/1 171/80/1 170/94/1
f 105/101/2 97/101/2 172/77/2
f 152/92/3 214/92/3 59/118/3
f 143/94/2 106/94/2 105/101/2
f 140/82/4 109/82/4 112/58/4
f 141/80/1 107/80/1 106/94/1
f 114/86/3 118/3/3 192/3/3
f 117/28/7 191/28/7 192/3/7
f 113/96/3 200/96/3 201/96/3
f 114/86/3 188/86/3 187/96/3
f 144/28/2 117/28/2 118/3/2
f 151/117/4 202/117/4 194/83/4
f 115/83/5 195/83/5 196/83/5
f 149/86/3 114/86/3 113/96/3
f 130/106/1 222/106/1 223/87/1
f 121/87/3 179/87/3 180/105/3
f 124/90/5 127/12/5 185/12/5
f 126/24/8 184/24/8 183/22/8
f 134/105/3 122/105/3 126/24/3
f 131/91/1 110/91/1 222/106/1
f 135/87/3 121/87/3 122/105/3
f 128/12/5 127/12/5 124/90/5
f 71/12/5 128/12/5 132/90/5
f 89/87/3 135/87/3 134/105/3
f 87/106/6 130/106/6 135/87/6
f 55/105/3 134/105/3 133/24/3
f 92/91/6 131/91/6 130/106/6
f 66/22/2 129/22/2 128/12/2
f 58/90/5 132/90/5 131/91/5
f 68/24/2 133/24/2 129/22/2
f 61/80/1 141/80/1 143/94/1
f 62/82/4 140/82/4 142/58/4
f 78/94/2 143/94/2 137/101/2
f 84/58/6 142/58/6 139/57/6
f 82/57/6 139/57/6 138/9/6
f 77/101/2 137/101/2 136/77/2
f 79/77/4 136/77/4 140/82/4
f 83/9/1 138/9/1 141/80/1
f 56/86/3 149/86/3 150/96/3
f 88/117/6 151/117/6 145/83/6
f 90/96/6 150/96/6 151/117/6
f 67/28/2 144/28/2 148/3/2
f 57/104/5 147/104/5 146/30/5
f 91/83/5 145/83/5 147/104/5
f 70/30/2 146/30/2 144/28/2
f 69/3/3 148/3/3 149/86/3
f 63/103/4 159/103/4 156/56/4
f 72/55/2 157/55/2 158/15/2
f 94/92/6 152/92/6 155/118/6
f 95/74/4 154/74/4 159/103/4
f 93/118/6 155/118/6 154/74/6
f 60/81/1 153/81/1 152/92/1
f 74/56/2 156/56/2 157/55/2
f 73/15/1 158/15/1 153/81/1
f 162/92/5 163/81/5 161/120/5
f 160/118/5 161/120/5 165/103/5
f 163/81/5 167/15/5 166/55/5
f 161/120/5 166/55/5 168/56/5
f 176/58/4 219/58/4 211/58/4
f 104/56/2 168/56/2 166/55/2
f 101/103/4 165/103/4 168/56/4
f 99/81/1 163/81/1 162/92/1
f 170/94/3 171/80/3 169/121/3
f 97/101/3 169/121/3 173/82/3
f 171/80/3 175/9/3 174/57/3
f 169/121/3 174/57/3 176/58/3
f 106/94/2 170/94/2 97/101/2
f 108/77/4 172/77/4 173/82/4
f 139/57/5 204/57/5 213/9/5
f 109/82/4 173/82/4 176/58/4
f 181/91/4 182/90/4 178/122/4
f 177/106/4 178/122/4 180/105/4
f 182/90/8 185/12/8 183/22/8
f 178/122/8 183/22/8 184/24/8
f 125/22/8 183/22/8 185/12/8
f 122/105/3 180/105/3 184/24/3
f 124/90/5 182/90/5 181/91/5
f 181/91/5 226/91/5 96/91/5
f 187/96/1 188/86/1 186/123/1
f 120/117/1 186/123/1 190/104/1
f 188/86/7 192/3/7 191/28/7
f 186/123/7 191/28/7 193/30/7
f 115/83/5 189/83/5 190/104/5
f 189/83/1 196/83/1 198/117/1
f 119/30/7 193/30/7 191/28/7
f 116/104/5 190/104/5 193/30/5
f 197/117/6 198/117/6 196/83/6
f 201/96/6 200/96/6 197/117/6
f 202/117/6 197/117/6 195/83/6
f 200/96/6 199/96/6 198/117/6
f 120/117/1 198/117/1 199/96/1
f 150/96/4 201/96/4 202/117/4
f 145/83/5 194/83/5 195/83/5
f 187/96/3 199/96/3 200/96/3
f 59/118/6 203/118/6 207/74/6
f 204/57/6 205/57/6 210/9/6
f 203/118/6 208/118/6 206/74/6
f 214/92/6 209/92/6 203/118/6
f 205/57/6 218/57/6 217/9/6
f 212/58/6 211/58/6 205/57/6
f 209/92/6 216/92/6 208/118/6
f 211/58/6 219/58/6 218/57/6
f 174/57/3 218/57/3 219/58/3
f 112/58/4 211/58/4 212/58/4
f 138/9/1 213/9/1 210/9/1
f 98/92/1 209/92/1 214/92/1
f 162/92/1 216/92/1 209/92/1
f 111/9/1 210/9/1 217/9/1
f 142/58/5 212/58/5 204/57/5
f 154/74/4 215/74/4 207/74/4
f 110/91/6 96/91/6 220/106/6
f 220/106/6 224/106/6 225/87/6
f 222/106/6 220/106/6 221/87/6
f 96/91/6 226/91/6 224/106/6
f 123/91/5 96/91/5 110/91/5
f 121/87/3 221/87/3 225/87/3
f 179/87/4 225/87/4 224/106/4
f 135/87/3 223/87/3 221/87/3
