# Blender 4.4.1
# www.blender.org
mtllib Player.mtl
o 立方体
v -0.258762 -0.332959 0.800000
v -0.377940 0.200967 0.539213
v -0.676502 -0.106120 -0.805630
v -0.284031 0.405438 -1.678518
v 0.258762 -0.332959 0.800000
v 0.377940 0.200967 0.539213
v 0.676502 -0.106120 -0.805630
v 0.284031 0.405438 -1.678518
v -0.642173 0.000000 0.800000
v -2.814127 -0.165529 -1.751624
v 2.814127 -0.165529 -1.751624
v 0.642173 0.000000 0.800000
v 0.000000 -0.584665 -1.166955
v 0.000000 0.494614 -1.613703
v 0.000000 -0.283986 1.644917
v 0.000000 0.299262 1.052859
v 0.000000 0.140097 1.748281
v 0.000000 -0.116504 -1.090648
v 0.169688 0.539111 -1.620451
v 0.223279 -0.437190 0.800000
v 1.124925 -0.066913 -1.358464
v 0.108183 -0.398509 -0.800000
v 0.294958 0.315421 0.644817
v 0.237295 0.000000 1.311669
v -0.108183 -0.398509 -0.800000
v -0.294958 0.315421 0.644817
v -0.237295 0.000000 1.311669
v -0.169688 0.539111 -1.620451
v -0.223279 -0.437190 0.800000
v -1.124925 -0.066913 -1.358464
v -0.501751 0.108546 0.542609
v -0.474843 0.152692 -1.110794
v 0.474843 0.152692 -1.110794
v 0.501751 0.108546 0.542609
v 0.000000 0.164842 1.216109
v 0.000000 0.185313 -1.127262
v 0.169245 0.113801 0.801983
v 0.400000 0.131599 -1.671626
v -0.400000 0.131599 -1.671626
v -0.169245 0.113801 0.801983
v -2.455860 -0.123639 -1.092683
v 2.455860 -0.123639 -1.092683
v 0.800000 -0.115115 0.800000
v -0.800000 -0.115115 0.800000
v 0.000000 -0.422488 -1.159266
v 0.000000 -0.030999 2.830678
v 0.400000 -0.111568 1.554247
v 0.130417 -0.209066 -1.082101
v -0.130417 -0.209066 -1.082101
v -0.400000 -0.111568 1.554247
v -0.616647 -0.120759 0.000000
v -0.292948 0.167955 -0.274430
v 0.616647 -0.120759 0.000000
v 0.292948 0.167955 -0.274430
v 1.608327 0.000000 -0.116576
v -1.608327 0.000000 -0.116576
v 0.000000 0.613582 -0.332365
v 0.000000 -0.463955 0.291859
v 0.255841 0.322053 -0.282524
v 0.108183 -0.398509 0.000000
v -0.108183 -0.398509 0.000000
v -0.255841 0.322053 -0.282524
v 0.699320 0.152692 0.000000
v -0.699320 0.152692 0.000000
v -1.744535 -0.115115 0.000000
v 1.744535 -0.115115 0.000000
v -0.616647 -0.185474 0.396161
v 0.309417 0.200967 0.350716
v 0.962985 0.000000 0.202266
v 0.000000 0.552760 0.283986
v 0.000000 -0.513793 0.921730
v 0.246736 0.315421 0.351293
v 0.108183 -0.398509 0.396161
v -0.108183 -0.398509 0.396161
v -0.246736 0.315421 0.351293
v 0.699320 0.152692 0.396161
v 1.148783 -0.115115 0.396161
v -0.309417 0.200967 0.350716
v 0.616647 -0.185474 0.396161
v -0.962985 0.000000 0.202266
v -0.699320 0.152692 0.396161
v -1.148783 -0.115115 0.396161
v -0.350685 0.317361 -0.280190
v 0.616647 -0.105652 -0.400000
v -2.237841 0.000000 -1.053711
v -0.511951 0.152692 -0.400000
v -2.020810 -0.115115 -0.400000
v -0.616647 -0.105652 -0.400000
v 0.350685 0.317361 -0.280190
v 2.237841 0.000000 -1.053711
v 0.000000 0.643542 -0.341603
v 0.000000 -0.618318 -0.400000
v 0.187702 0.567728 -0.332277
v 0.108183 -0.398509 -0.400000
v -0.108183 -0.398509 -0.400000
v -0.187702 0.567728 -0.332277
v 0.511951 0.152692 -0.400000
v 2.020810 -0.115115 -0.400000
vn -0.7005 0.7127 -0.0366
vn 0.9135 0.3834 -0.1363
vn 0.0708 0.9246 0.3743
vn -0.6018 0.2226 0.7670
vn 0.9066 -0.3086 -0.2879
vn -0.7463 0.6542 -0.1226
vn -0.3546 0.9168 0.1838
vn 0.2993 0.9185 0.2585
vn 0.0326 -0.9316 -0.3620
vn -0.5103 0.8019 0.3106
vn -0.2142 0.2137 -0.9531
vn 0.5719 0.8103 0.1281
vn 0.7048 0.6999 -0.1158
vn -0.2410 -0.9572 -0.1604
vn 0.8728 0.3768 0.3103
vn 0.6448 -0.6450 -0.4101
vn 0.6018 0.2226 0.7670
vn 0.8351 0.4588 -0.3036
vn 0.3546 0.9168 0.1838
vn 0.2142 0.2137 -0.9531
vn 0.4415 -0.8551 0.2717
vn -0.6448 -0.6450 -0.4101
vn -0.9135 0.3834 -0.1363
vn -0.3864 -0.9223 0.0056
vn -0.0326 -0.9316 -0.3620
vn -0.5719 0.8103 0.1281
vn -0.3561 0.8874 0.2926
vn -0.8728 0.3768 0.3103
vn -0.5596 0.8279 0.0385
vn 0.1755 0.4614 -0.8697
vn -0.0621 -0.9017 -0.4278
vn 0.2307 0.9557 0.1826
vn 0.0621 -0.9017 -0.4278
vn 0.5596 0.8279 0.0385
vn -0.2307 0.9557 0.1826
vn 0.6481 0.6774 0.3479
vn -0.1755 0.4614 -0.8697
vn -0.0903 0.9832 -0.1586
vn -0.4321 -0.8604 0.2702
vn -0.3948 -0.7768 -0.4906
vn 0.9572 0.0137 -0.2891
vn -0.0000 -0.0000 -1.0000
vn 0.4321 -0.8604 0.2702
vn -0.9572 0.0137 -0.2891
vn 0.0067 -1.0000 0.0002
vn 0.3948 -0.7768 -0.4906
vn 0.3734 -0.9276 -0.0079
vn 0.0050 -0.9993 -0.0377
vn -0.1294 -0.9786 -0.1599
vn -0.2019 0.8901 0.4087
vn 0.1175 0.9899 0.0789
vn -0.0714 0.2939 0.9532
vn -0.4988 -0.8661 -0.0327
vn 0.7623 -0.6317 0.1409
vn -0.0222 0.0471 0.9986
vn -0.8972 -0.4416 -0.0000
vn 0.0513 0.2119 0.9760
vn -0.3074 0.8318 0.4622
vn 0.4463 0.8402 0.3082
vn 0.0145 0.1946 0.9808
vn 0.4794 -0.8776 -0.0000
vn 0.0548 0.9982 -0.0257
vn -0.1229 0.9924 -0.0000
vn -0.0708 0.9246 0.3743
vn -0.2993 0.9185 0.2585
vn -0.6481 0.6774 0.3479
vn -0.3734 -0.9276 -0.0079
vn 0.1294 -0.9786 -0.1599
vn 0.2019 0.8901 0.4087
vn -0.7444 0.6645 0.0656
vn -0.4745 -0.8687 -0.1419
vn 0.5618 -0.8247 -0.0653
vn 0.8760 0.4800 -0.0484
vn -0.5176 -0.8556 -0.0000
vn 0.6907 0.7230 0.0175
vn 0.3074 0.8318 0.4622
vn -0.9719 0.2349 0.0164
vn 0.3864 -0.9223 -0.0000
vn 0.1229 0.9924 -0.0000
vn 0.7005 0.7127 -0.0366
vn 0.4991 -0.8665 -0.0000
vn -0.7543 0.6561 -0.0251
vn 0.5103 0.8019 0.3106
vn 0.3755 0.9265 -0.0258
vn 0.8386 0.5447 -0.0057
vn 0.8816 -0.4715 -0.0207
vn -0.4569 -0.8869 0.0685
vn 0.2562 0.9601 -0.1124
vn 0.0903 0.9832 -0.1586
vn -0.0067 -1.0000 0.0002
vn -0.0050 -0.9993 -0.0377
vn -0.1175 0.9899 0.0789
vn -0.4463 0.8402 0.3082
vn -0.0548 0.9982 -0.0257
vn -0.7982 0.6024 -0.0001
vn -0.6929 -0.3098 -0.6511
vn 0.5881 0.7800 -0.2138
vn -0.5641 0.7424 -0.3614
vn 0.3864 -0.9223 0.0056
vn -0.8351 0.4588 -0.3036
vn -0.5341 0.7322 0.4226
vn 0.5619 0.7703 0.3016
vn -0.0498 -0.9981 0.0364
vn -0.5108 0.8298 0.2250
vn 0.2002 -0.3660 -0.9088
vn 0.5407 0.8409 0.0241
vn 0.3561 0.8874 0.2926
vn -0.4415 -0.8551 0.2717
vn 0.8104 -0.0502 0.5838
vn 0.0629 0.0893 -0.9940
vn 0.5641 0.7424 -0.3614
vn 0.7463 0.6542 -0.1226
vn 0.5341 0.7322 0.4226
vn -0.2002 -0.3660 -0.9088
vn 0.2410 -0.9572 -0.1604
vn -0.0629 0.0893 -0.9940
vn 0.6929 -0.3098 -0.6511
vn -0.9066 -0.3086 -0.2879
vn 0.0498 -0.9981 0.0364
vn -0.5407 0.8409 0.0241
vn -0.7048 0.6999 -0.1158
vn -0.8104 -0.0502 0.5838
vn -0.5349 0.8370 0.1155
vn -0.2934 0.9531 -0.0750
vn -0.8071 -0.0711 -0.5861
vn 0.2263 0.9356 0.2711
vn 0.8071 -0.0711 -0.5861
vn 0.5349 0.8370 0.1155
vn -0.2263 0.9356 0.2711
vn 0.0591 0.9309 0.3604
vn 0.2934 0.9531 -0.0750
vn -0.0864 0.9962 -0.0045
vn -0.4245 -0.8855 0.1889
vn -0.0365 -0.9579 0.2846
vn 0.8652 -0.4452 -0.2308
vn 0.4716 -0.8444 0.2541
vn 0.4245 -0.8855 0.1889
vn -0.8652 -0.4452 -0.2308
vn 0.0087 -0.9999 0.0068
vn 0.0365 -0.9579 0.2846
vn 0.1302 -0.9851 0.1125
vn -0.4716 -0.8444 0.2541
vn -0.0067 -1.0000 -0.0047
vn -0.0050 -1.0000 0.0075
vn -0.5011 0.8654 -0.0000
vn 0.1561 0.9850 -0.0731
vn -0.0513 0.2119 0.9760
vn -0.4794 -0.8776 -0.0000
vn 0.8972 -0.4416 -0.0000
vn -0.0145 0.1946 0.9808
vn -0.7623 -0.6317 0.1409
vn 0.0714 0.2939 0.9532
vn -0.1816 0.9121 0.3675
vn 0.4396 0.8482 0.2953
vn 0.0222 0.0471 0.9986
vn 0.4988 -0.8661 -0.0327
vn 0.4834 -0.1536 0.8618
vn -0.0742 0.9957 -0.0545
vn -0.5881 0.7800 -0.2138
vn -0.5619 0.7703 0.3016
vn -0.0591 0.9309 0.3604
vn -0.1302 -0.9851 0.1125
vn 0.0050 -1.0000 0.0075
vn 0.5011 0.8654 -0.0000
vn -0.6907 0.7230 0.0175
vn -0.3864 -0.9223 -0.0000
vn 0.5176 -0.8556 -0.0000
vn 0.9719 0.2349 0.0164
vn -0.5618 -0.8247 -0.0653
vn 0.7444 0.6645 0.0656
vn 0.1816 0.9121 0.3675
vn -0.8760 0.4800 -0.0484
vn 0.4745 -0.8687 -0.1419
vn 0.0742 0.9957 -0.0545
vn 0.7982 0.6024 -0.0001
vn 0.4569 -0.8869 0.0685
vn -0.8386 0.5447 -0.0057
vn 0.5108 0.8298 0.2250
vn -0.2562 0.9601 -0.1124
vn -0.8816 -0.4715 -0.0207
vn 0.7543 0.6561 -0.0251
vn -0.4991 -0.8665 -0.0000
vn -0.3755 0.9265 -0.0258
vn 0.0864 0.9962 -0.0045
vn -0.0087 -0.9999 0.0068
vn 0.0067 -1.0000 -0.0047
vn -0.1561 0.9850 -0.0731
vn -0.4396 0.8482 0.2953
vn -0.4834 -0.1536 0.8618
vt 0.625000 0.187500
vt 0.562500 0.250000
vt 0.562500 0.187500
vt 0.562500 0.437500
vt 0.625000 0.500000
vt 0.562500 0.500000
vt 0.625000 0.686900
vt 0.562500 0.750000
vt 0.562500 0.686900
vt 0.625000 0.937500
vt 0.562500 1.000000
vt 0.562500 0.937500
vt 0.312500 0.686900
vt 0.375000 0.750000
vt 0.312500 0.750000
vt 0.812500 0.686900
vt 0.875000 0.750000
vt 0.812500 0.750000
vt 0.500000 0.937500
vt 0.437500 1.000000
vt 0.437500 0.937500
vt 0.500000 0.686900
vt 0.437500 0.750000
vt 0.437500 0.686900
vt 0.500000 0.437500
vt 0.437500 0.500000
vt 0.437500 0.437500
vt 0.500000 0.187500
vt 0.437500 0.250000
vt 0.437500 0.187500
vt 0.437500 0.312500
vt 0.500000 0.375000
vt 0.437500 0.375000
vt 0.437500 0.812500
vt 0.500000 0.875000
vt 0.437500 0.875000
vt 0.750000 0.686900
vt 0.687500 0.750000
vt 0.687500 0.686900
vt 0.250000 0.686900
vt 0.187500 0.750000
vt 0.187500 0.686900
vt 0.562500 0.812500
vt 0.625000 0.875000
vt 0.562500 0.875000
vt 0.562500 0.312500
vt 0.625000 0.375000
vt 0.562500 0.375000
vt 0.625000 0.812500
vt 0.625000 0.750000
vt 0.500000 0.812500
vt 0.250000 0.750000
vt 0.625000 0.250000
vt 0.125000 0.750000
vt 0.125000 0.686900
vt 0.500000 0.312500
vt 0.750000 0.750000
vt 0.500000 0.250000
vt 0.500000 0.750000
vt 0.500000 1.000000
vt 0.500000 0.500000
vt 0.375000 0.875000
vt 0.375000 0.937500
vt 0.375000 0.250000
vt 0.375000 0.312500
vt 0.375000 0.437500
vt 0.375000 0.375000
vt 0.375000 0.812500
vt 0.375000 0.187500
vt 0.375000 0.500000
vt 0.375000 0.686900
vt 0.375000 1.000000
vt 0.375000 0.562500
vt 0.437500 0.625000
vt 0.375000 0.625000
vt 0.437500 0.063100
vt 0.375000 0.125000
vt 0.375000 0.063100
vt 0.500000 0.063100
vt 0.562500 0.125000
vt 0.500000 0.125000
vt 0.562500 0.562500
vt 0.500000 0.625000
vt 0.500000 0.562500
vt 0.812500 0.562500
vt 0.750000 0.625000
vt 0.750000 0.562500
vt 0.187500 0.562500
vt 0.125000 0.625000
vt 0.125000 0.562500
vt 0.250000 0.562500
vt 0.312500 0.625000
vt 0.250000 0.625000
vt 0.625000 0.562500
vt 0.687500 0.625000
vt 0.625000 0.625000
vt 0.187500 0.625000
vt 0.687500 0.562500
vt 0.437500 0.125000
vt 0.437500 0.562500
vt 0.875000 0.562500
vt 0.812500 0.625000
vt 0.312500 0.562500
vt 0.562500 0.625000
vt 0.625000 0.063100
vt 0.562500 0.063100
vt 0.562500 0.000000
vt 0.437500 0.000000
vt 0.500000 0.000000
vt 0.375000 0.000000
vt 0.875000 0.625000
vt 0.312500 0.500000
vt 0.875000 0.500000
vt 0.812500 0.500000
vt 0.687500 0.500000
vt 0.187500 0.500000
vt 0.250000 0.500000
vt 0.125000 0.500000
vt 0.750000 0.500000
vt 0.625000 0.125000
vt 0.625000 0.437500
vt 0.625000 1.000000
vt 0.875000 0.686900
vt 0.625000 0.312500
vt 0.625000 0.000000
s 0
usemtl マテリアル.001
f 83/1/1 32/2/1 86/3/1
f 38/4/2 8/5/2 33/6/2
f 68/7/3 34/8/3 76/9/3
f 26/10/4 31/11/4 40/12/4
f 73/13/5 5/14/5 20/15/5
f 75/16/6 2/17/6 26/18/6
f 27/19/7 44/20/7 50/21/7
f 69/22/8 43/23/8 77/24/8
f 21/25/9 42/26/9 48/27/9
f 85/28/10 41/29/10 87/30/10
f 49/31/11 18/32/11 45/33/11
f 47/34/12 17/35/12 46/36/12
f 70/37/13 23/38/13 72/39/13
f 71/40/14 29/41/14 74/42/14
f 37/43/15 16/44/15 35/45/15
f 39/46/16 14/47/16 36/48/16
f 34/8/17 23/49/17 37/43/17
f 72/39/18 6/50/18 68/7/18
f 43/23/19 24/51/19 47/34/19
f 18/32/20 48/27/20 45/33/20
f 71/40/21 20/15/21 15/52/21
f 14/47/22 38/4/22 36/48/22
f 4/53/23 39/46/23 32/2/23
f 74/42/24 1/54/24 67/55/24
f 41/29/25 30/56/25 49/31/25
f 17/35/26 50/21/26 46/36/26
f 70/37/27 26/18/27 16/57/27
f 16/44/28 40/12/28 35/45/28
f 35/45/29 27/19/29 17/35/29
f 32/2/30 30/56/30 10/58/30
f 18/32/31 38/4/31 21/25/31
f 12/59/32 37/43/32 24/51/32
f 39/46/33 18/32/33 30/56/33
f 24/51/34 35/45/34 17/35/34
f 40/12/35 9/60/35 27/19/35
f 76/9/36 12/59/36 69/22/36
f 21/25/37 33/6/37 11/61/37
f 85/28/38 32/2/38 10/58/38
f 15/62/39 50/21/39 29/63/39
f 3/64/40 49/31/40 25/65/40
f 45/33/41 22/66/41 13/67/41
f 43/23/42 20/68/42 5/14/42
f 47/34/43 15/62/43 20/68/43
f 25/65/44 45/33/44 13/67/44
f 87/30/45 3/64/45 88/69/45
f 48/27/46 7/70/46 22/66/46
f 79/71/47 43/23/47 5/14/47
f 29/63/42 44/20/42 1/72/42
f 84/73/48 66/74/48 53/75/48
f 82/76/49 51/77/49 67/78/49
f 80/79/50 64/80/50 56/81/50
f 97/82/51 55/83/51 90/84/51
f 96/85/52 57/86/52 91/87/52
f 95/88/53 51/89/53 88/90/53
f 92/91/54 60/92/54 58/93/54
f 89/94/55 59/95/55 54/96/55
f 92/91/56 61/97/56 95/88/56
f 93/98/57 57/86/57 59/95/57
f 82/76/58 56/81/58 65/99/58
f 98/100/59 55/83/59 66/74/59
f 83/101/60 62/102/60 96/85/60
f 94/103/61 53/75/61 60/92/61
f 97/82/62 54/96/62 63/104/62
f 78/105/63 64/80/63 81/106/63
f 31/107/64 78/105/64 81/106/64
f 44/108/65 80/79/65 82/76/65
f 9/109/66 81/106/66 80/79/66
f 44/108/67 67/78/67 1/110/67
f 53/75/68 77/24/68 79/71/68
f 63/104/69 69/22/69 55/83/69
f 62/102/70 70/37/70 57/86/70
f 61/97/71 67/55/71 51/89/71
f 58/93/72 73/13/72 71/40/72
f 54/96/73 72/39/73 68/7/73
f 58/93/74 74/42/74 61/97/74
f 59/95/75 70/37/75 72/39/75
f 55/83/76 77/24/76 66/74/76
f 52/111/77 75/16/77 62/102/77
f 60/92/78 79/71/78 73/13/78
f 63/104/79 68/7/79 76/9/79
f 33/6/80 89/94/80 97/82/80
f 22/112/81 84/73/81 94/103/81
f 4/113/82 96/85/82 28/114/82
f 42/26/83 90/84/83 98/100/83
f 19/115/84 91/87/84 93/98/84
f 25/116/56 92/91/56 95/88/56
f 8/5/85 93/98/85 89/94/85
f 22/112/86 92/91/86 13/117/86
f 25/116/87 88/90/87 3/118/87
f 28/114/88 91/87/88 14/119/88
f 33/6/89 90/84/89 11/61/89
f 7/70/90 98/100/90 84/73/90
f 65/99/91 88/69/91 51/77/91
f 56/81/92 86/3/92 85/28/92
f 56/81/93 87/30/93 65/99/93
f 52/120/94 86/3/94 64/80/94
f 83/1/95 4/53/95 32/2/95
f 38/4/96 19/121/96 8/5/96
f 68/7/97 6/50/97 34/8/97
f 26/10/98 2/122/98 31/11/98
f 73/13/99 79/71/99 5/14/99
f 75/16/100 78/123/100 2/17/100
f 27/19/101 9/60/101 44/20/101
f 69/22/102 12/59/102 43/23/102
f 21/25/103 11/61/103 42/26/103
f 85/28/104 10/58/104 41/29/104
f 49/31/105 30/56/105 18/32/105
f 47/34/106 24/51/106 17/35/106
f 70/37/107 16/57/107 23/38/107
f 71/40/108 15/52/108 29/41/108
f 37/43/109 23/49/109 16/44/109
f 39/46/110 28/124/110 14/47/110
f 34/8/111 6/50/111 23/49/111
f 72/39/112 23/38/112 6/50/112
f 43/23/113 12/59/113 24/51/113
f 18/32/114 21/25/114 48/27/114
f 71/40/115 73/13/115 20/15/115
f 14/47/116 19/121/116 38/4/116
f 4/53/117 28/124/117 39/46/117
f 74/42/118 29/41/118 1/54/118
f 41/29/119 10/58/119 30/56/119
f 17/35/120 27/19/120 50/21/120
f 70/37/121 75/16/121 26/18/121
f 16/44/122 26/10/122 40/12/122
f 35/45/123 40/12/123 27/19/123
f 32/2/124 39/46/124 30/56/124
f 18/32/125 36/48/125 38/4/125
f 12/59/126 34/8/126 37/43/126
f 39/46/127 36/48/127 18/32/127
f 24/51/128 37/43/128 35/45/128
f 40/12/129 31/11/129 9/60/129
f 76/9/130 34/8/130 12/59/130
f 21/25/131 38/4/131 33/6/131
f 85/28/132 86/3/132 32/2/132
f 15/62/133 46/36/133 50/21/133
f 3/64/134 41/29/134 49/31/134
f 45/33/135 48/27/135 22/66/135
f 43/23/136 47/34/136 20/68/136
f 47/34/137 46/36/137 15/62/137
f 25/65/138 49/31/138 45/33/138
f 87/30/139 41/29/139 3/64/139
f 48/27/140 42/26/140 7/70/140
f 79/71/141 77/24/141 43/23/141
f 29/63/142 50/21/142 44/20/142
f 84/73/143 98/100/143 66/74/143
f 82/76/144 65/99/144 51/77/144
f 80/79/145 81/106/145 64/80/145
f 97/82/146 63/104/146 55/83/146
f 96/85/147 62/102/147 57/86/147
f 95/88/148 61/97/148 51/89/148
f 92/91/149 94/103/149 60/92/149
f 89/94/150 93/98/150 59/95/150
f 92/91/151 58/93/151 61/97/151
f 93/98/152 91/87/152 57/86/152
f 82/76/153 80/79/153 56/81/153
f 98/100/154 90/84/154 55/83/154
f 83/101/155 52/111/155 62/102/155
f 94/103/156 84/73/156 53/75/156
f 97/82/157 89/94/157 54/96/157
f 78/105/158 52/120/158 64/80/158
f 31/107/159 2/125/159 78/105/159
f 44/108/160 9/109/160 80/79/160
f 9/109/161 31/107/161 81/106/161
f 44/108/162 82/76/162 67/78/162
f 53/75/163 66/74/163 77/24/163
f 63/104/164 76/9/164 69/22/164
f 62/102/165 75/16/165 70/37/165
f 61/97/166 74/42/166 67/55/166
f 58/93/167 60/92/167 73/13/167
f 54/96/168 59/95/168 72/39/168
f 58/93/169 71/40/169 74/42/169
f 59/95/170 57/86/170 70/37/170
f 55/83/171 69/22/171 77/24/171
f 52/111/172 78/123/172 75/16/172
f 60/92/173 53/75/173 79/71/173
f 63/104/174 54/96/174 68/7/174
f 33/6/175 8/5/175 89/94/175
f 22/112/176 7/70/176 84/73/176
f 4/113/177 83/101/177 96/85/177
f 42/26/178 11/61/178 90/84/178
f 19/115/179 14/119/179 91/87/179
f 25/116/180 13/117/180 92/91/180
f 8/5/181 19/115/181 93/98/181
f 22/112/149 94/103/149 92/91/149
f 25/116/182 95/88/182 88/90/182
f 28/114/183 96/85/183 91/87/183
f 33/6/184 97/82/184 90/84/184
f 7/70/185 42/26/185 98/100/185
f 65/99/186 87/30/186 88/69/186
f 56/81/187 64/80/187 86/3/187
f 56/81/188 85/28/188 87/30/188
f 52/120/189 83/1/189 86/3/189
