# Blender 4.4.1
# www.blender.org
mtllib stageGraunod.mtl
o Cube
v -50.196220 -5.852871 -100.000000
v -50.196220 -6.252870 -100.000000
v 49.803780 -5.852871 -100.000000
v 49.803780 -6.252870 -100.000000
v -50.196220 -5.852832 100.000000
v -50.196220 -6.252833 100.000000
v 49.803780 -5.852832 100.000000
v 49.803780 -6.252833 100.000000
v -0.196218 -6.252833 100.000000
v -0.196223 -5.852871 -100.000000
v -0.196218 -5.852832 100.000000
v -0.196223 -6.252870 -100.000000
v 12.303782 -6.252833 100.000000
v 12.303777 -5.852871 -100.000000
v 12.303782 -5.852832 100.000000
v 12.303777 -6.252870 -100.000000
v -12.696218 -5.852832 100.000000
v -12.696223 -6.252870 -100.000000
v -12.696218 -6.252833 100.000000
v -12.696223 -5.852871 -100.000000
v 6.053782 -5.852832 100.000000
v 6.053777 -6.252870 -100.000000
v 6.053782 -6.252833 100.000000
v 6.053777 -5.852871 -100.000000
v 18.553782 -6.252833 100.000000
v 18.553778 -5.852871 -100.000000
v 18.553782 -5.852832 100.000000
v 18.553778 -6.252870 -100.000000
v -6.446218 -6.252833 100.000000
v -6.446223 -5.852871 -100.000000
v -6.446218 -5.852832 100.000000
v -6.446223 -6.252870 -100.000000
v -18.946218 -5.852832 100.000000
v -18.946222 -6.252870 -100.000000
v -18.946218 -6.252833 100.000000
v -18.946222 -5.852871 -100.000000
v 21.678782 -6.252833 100.000000
v 21.678778 -5.852871 -100.000000
v 21.678782 -5.852832 100.000000
v 21.678778 -6.252870 -100.000000
v -3.321219 -6.252833 100.000000
v -3.321223 -5.852871 -100.000000
v -3.321219 -5.852832 100.000000
v -3.321223 -6.252870 -100.000000
v 2.928782 -5.852832 100.000000
v 2.928777 -6.252870 -100.000000
v 2.928782 -6.252833 100.000000
v 2.928777 -5.852871 -100.000000
v -1.758718 -6.252833 100.000000
v -1.758723 -5.852871 -100.000000
v -1.758718 -5.852832 100.000000
v -1.758723 -6.252870 -100.000000
v 1.366282 -5.852832 100.000000
v 1.366277 -6.252870 -100.000000
v 1.366282 -6.252833 100.000000
v 1.366277 -5.852871 -100.000000
v 20.116282 -5.852832 100.000000
v 20.116278 -6.252870 -100.000000
v 20.116282 -6.252833 100.000000
v 20.116278 -5.852871 -100.000000
v 20.897532 -6.252833 100.000000
v 20.897528 -5.852871 -100.000000
v 20.897532 -5.852832 100.000000
v 20.897528 -6.252870 -100.000000
v 23.241282 -6.252833 100.000000
v 23.241278 -5.852871 -100.000000
v 23.241282 -5.852832 100.000000
v 23.241278 -6.252870 -100.000000
v -22.071218 -5.852832 100.000000
v -22.071222 -6.252870 -100.000000
v -22.071218 -6.252833 100.000000
v -22.071222 -5.852871 -100.000000
v -23.633718 -5.852832 100.000000
v -23.633722 -6.252870 -100.000000
v -23.633718 -6.252833 100.000000
v -23.633722 -5.852871 -100.000000
v -20.508718 -6.252833 100.000000
v -20.508722 -5.852871 -100.000000
v -20.508718 -5.852832 100.000000
v -20.508722 -6.252870 -100.000000
v -1.758723 -5.295298 -100.000000
v -0.196223 -5.295298 -100.000000
v 1.366282 -5.295261 100.000000
v -0.196218 -5.295261 100.000000
v -1.758718 -5.295261 100.000000
v 1.366277 -5.295298 -100.000000
vn -0.0000 1.0000 -0.0000
vn 1.0000 -0.0000 -0.0000
vn -0.0000 -0.0000 1.0000
vn -0.0000 -1.0000 -0.0000
vn -0.0000 -0.0000 -1.0000
vn -1.0000 -0.0000 -0.0000
vt 0.875000 0.742188
vt 0.625000 0.750000
vt 0.625000 0.742188
vt 0.375000 1.000000
vt 0.375000 0.750000
vt 0.625000 0.242188
vt 0.375000 0.250000
vt 0.375000 0.242188
vt 0.375000 0.742188
vt 0.125000 0.750000
vt 0.125000 0.742188
vt 0.625000 0.250000
vt 0.375000 0.500000
vt 0.625000 0.617188
vt 0.375000 0.625000
vt 0.375000 0.617188
vt 0.125000 0.625000
vt 0.125000 0.617188
vt 0.625000 0.117188
vt 0.375000 0.125000
vt 0.375000 0.117188
vt 0.625000 0.625000
vt 0.625000 0.632812
vt 0.625000 0.031250
vt 0.375000 0.062500
vt 0.375000 0.031250
vt 0.625000 0.656250
vt 0.375000 0.687500
vt 0.375000 0.656250
vt 0.125000 0.687500
vt 0.125000 0.656250
vt 0.875000 0.656250
vt 0.625000 0.687500
vt 0.875000 0.531250
vt 0.625000 0.562500
vt 0.625000 0.531250
vt 0.375000 0.531250
vt 0.125000 0.562500
vt 0.125000 0.531250
vt 0.375000 0.562500
vt 0.625000 0.156250
vt 0.375000 0.187500
vt 0.375000 0.156250
vt 0.875000 0.640625
vt 0.625000 0.640625
vt 0.375000 0.640625
vt 0.125000 0.640625
vt 0.625000 0.062500
vt 0.375000 0.093750
vt 0.625000 0.023438
vt 0.375000 0.023438
vt 0.375000 0.718750
vt 0.125000 0.718750
vt 0.875000 0.687500
vt 0.625000 0.718750
vt 0.625000 0.140625
vt 0.375000 0.140625
vt 0.875000 0.562500
vt 0.625000 0.593750
vt 0.125000 0.593750
vt 0.375000 0.593750
vt 0.625000 0.523438
vt 0.375000 0.523438
vt 0.125000 0.523438
vt 0.875000 0.523438
vt 0.625000 0.187500
vt 0.375000 0.218750
vt 0.625000 0.007812
vt 0.375000 0.015625
vt 0.375000 0.007812
vt 0.625000 0.730469
vt 0.375000 0.734375
vt 0.375000 0.730469
vt 0.125000 0.734375
vt 0.125000 0.730469
vt 0.875000 0.730469
vt 0.625000 0.734375
vt 0.625000 0.132812
vt 0.375000 0.132812
vt 0.875000 0.593750
vt 0.625000 0.609375
vt 0.125000 0.609375
vt 0.375000 0.609375
vt 0.375000 0.632812
vt 0.125000 0.632812
vt 0.875000 0.632812
vt 0.625000 0.093750
vt 0.375000 0.109375
vt 0.625000 0.125000
vt 0.875000 0.609375
vt 0.625000 0.109375
vt 0.875000 0.718750
vt 0.625000 0.726562
vt 0.125000 0.726562
vt 0.375000 0.726562
vt 0.625000 0.019531
vt 0.375000 0.019531
vt 0.625000 0.015625
vt 0.875000 0.726562
vt 0.625000 0.000000
vt 0.375000 0.000000
vt 0.875000 0.734375
vt 0.875000 0.507812
vt 0.625000 0.515625
vt 0.625000 0.507812
vt 0.375000 0.507812
vt 0.125000 0.515625
vt 0.125000 0.507812
vt 0.375000 0.515625
vt 0.625000 0.226562
vt 0.375000 0.234375
vt 0.375000 0.226562
vt 0.625000 0.500000
vt 0.125000 0.500000
vt 0.875000 0.500000
vt 0.625000 0.234375
vt 0.625000 0.218750
vt 0.875000 0.515625
vt 0.875000 0.617188
vt 0.875000 0.625000
vt 0.875000 0.750000
vt 0.625000 1.000000
s 1
usemtl Material.001
f 67/1/1 3/2/1 66/3/1
f 3/2/2 8/4/2 4/5/2
f 73/6/3 6/7/3 75/8/3
f 68/9/4 8/10/4 65/11/4
f 66/3/5 4/5/5 68/9/5
f 5/12/6 2/13/6 6/7/6
f 50/14/5 12/15/5 52/16/5
f 52/16/4 9/17/4 49/18/4
f 53/19/3 9/20/3 55/21/3
f 10/22/5 86/23/5 56/23/5
f 27/24/3 13/25/3 25/26/3
f 24/27/5 16/28/5 22/29/5
f 22/29/4 13/30/4 23/31/4
f 21/32/1 14/33/1 24/27/1
f 33/34/1 20/35/1 36/36/1
f 34/37/4 19/38/4 35/39/4
f 36/36/5 18/40/5 34/37/5
f 31/41/3 19/42/3 29/43/3
f 45/44/1 24/27/1 48/45/1
f 46/46/4 23/31/4 47/47/4
f 48/45/5 22/29/5 46/46/5
f 15/48/3 23/49/3 13/25/3
f 57/50/3 25/26/3 59/51/3
f 14/33/5 28/52/5 16/28/5
f 16/28/4 25/53/4 13/30/4
f 15/54/1 26/55/1 14/33/1
f 43/56/3 29/43/3 41/57/3
f 17/58/1 30/59/1 20/35/1
f 18/40/4 29/60/4 19/38/4
f 20/35/5 32/61/5 18/40/5
f 78/62/5 34/37/5 80/63/5
f 80/63/4 35/39/4 77/64/4
f 79/65/1 36/36/1 78/62/1
f 17/66/3 35/67/3 19/42/3
f 67/68/3 37/69/3 65/70/3
f 62/71/5 40/72/5 64/73/5
f 64/73/4 37/74/4 61/75/4
f 63/76/1 38/77/1 62/71/1
f 51/78/3 41/57/3 49/79/3
f 31/80/1 42/81/1 30/59/1
f 32/61/4 41/82/4 29/60/4
f 30/59/5 44/83/5 32/61/5
f 56/23/5 46/46/5 54/84/5
f 54/84/4 47/47/4 55/85/4
f 53/86/1 48/45/1 56/23/1
f 21/87/3 47/88/3 23/49/3
f 11/89/3 49/79/3 9/20/3
f 43/90/1 50/14/1 42/81/1
f 44/83/4 49/18/4 41/82/4
f 42/81/5 52/16/5 44/83/5
f 11/89/3 85/78/3 51/78/3
f 12/15/4 55/85/4 9/17/4
f 10/22/5 54/84/5 12/15/5
f 45/91/3 55/21/3 47/88/3
f 27/92/1 60/93/1 26/55/1
f 28/52/4 59/94/4 25/53/4
f 26/55/5 58/95/5 28/52/5
f 63/96/3 59/51/3 61/97/3
f 39/98/3 61/97/3 37/69/3
f 57/99/1 62/71/1 60/93/1
f 58/95/4 61/75/4 59/94/4
f 60/93/5 64/73/5 58/95/5
f 7/100/3 65/70/3 8/101/3
f 38/77/5 68/9/5 40/72/5
f 40/72/4 65/11/4 37/74/4
f 39/102/1 66/3/1 38/77/1
f 73/103/1 72/104/1 76/105/1
f 74/106/4 71/107/4 75/108/4
f 76/105/5 70/109/5 74/106/5
f 79/110/3 71/111/3 77/112/3
f 1/113/5 74/106/5 2/13/5
f 2/13/4 75/108/4 6/114/4
f 5/115/1 76/105/1 1/113/1
f 69/116/3 75/8/3 71/111/3
f 33/117/3 77/112/3 35/67/3
f 69/118/1 78/62/1 72/104/1
f 70/109/4 77/64/4 71/107/4
f 72/104/5 80/63/5 70/109/5
f 85/119/1 82/22/1 81/14/1
f 84/120/1 86/23/1 82/22/1
f 50/14/5 82/22/5 10/22/5
f 51/119/6 81/14/6 50/14/6
f 56/23/2 83/86/2 53/86/2
f 53/19/3 84/89/3 11/89/3
f 67/1/1 7/121/1 3/2/1
f 3/2/2 7/122/2 8/4/2
f 73/6/3 5/12/3 6/7/3
f 68/9/4 4/5/4 8/10/4
f 66/3/5 3/2/5 4/5/5
f 5/12/6 1/113/6 2/13/6
f 50/14/5 10/22/5 12/15/5
f 52/16/4 12/15/4 9/17/4
f 53/19/3 11/89/3 9/20/3
f 10/22/5 82/22/5 86/23/5
f 27/24/3 15/48/3 13/25/3
f 24/27/5 14/33/5 16/28/5
f 22/29/4 16/28/4 13/30/4
f 21/32/1 15/54/1 14/33/1
f 33/34/1 17/58/1 20/35/1
f 34/37/4 18/40/4 19/38/4
f 36/36/5 20/35/5 18/40/5
f 31/41/3 17/66/3 19/42/3
f 45/44/1 21/32/1 24/27/1
f 46/46/4 22/29/4 23/31/4
f 48/45/5 24/27/5 22/29/5
f 15/48/3 21/87/3 23/49/3
f 57/50/3 27/24/3 25/26/3
f 14/33/5 26/55/5 28/52/5
f 16/28/4 28/52/4 25/53/4
f 15/54/1 27/92/1 26/55/1
f 43/56/3 31/41/3 29/43/3
f 17/58/1 31/80/1 30/59/1
f 18/40/4 32/61/4 29/60/4
f 20/35/5 30/59/5 32/61/5
f 78/62/5 36/36/5 34/37/5
f 80/63/4 34/37/4 35/39/4
f 79/65/1 33/34/1 36/36/1
f 17/66/3 33/117/3 35/67/3
f 67/68/3 39/98/3 37/69/3
f 62/71/5 38/77/5 40/72/5
f 64/73/4 40/72/4 37/74/4
f 63/76/1 39/102/1 38/77/1
f 51/78/3 43/56/3 41/57/3
f 31/80/1 43/90/1 42/81/1
f 32/61/4 44/83/4 41/82/4
f 30/59/5 42/81/5 44/83/5
f 56/23/5 48/45/5 46/46/5
f 54/84/4 46/46/4 47/47/4
f 53/86/1 45/44/1 48/45/1
f 21/87/3 45/91/3 47/88/3
f 11/89/3 51/78/3 49/79/3
f 43/90/1 51/119/1 50/14/1
f 44/83/4 52/16/4 49/18/4
f 42/81/5 50/14/5 52/16/5
f 11/89/3 84/89/3 85/78/3
f 12/15/4 54/84/4 55/85/4
f 10/22/5 56/23/5 54/84/5
f 45/91/3 53/19/3 55/21/3
f 27/92/1 57/99/1 60/93/1
f 28/52/4 58/95/4 59/94/4
f 26/55/5 60/93/5 58/95/5
f 63/96/3 57/50/3 59/51/3
f 39/98/3 63/96/3 61/97/3
f 57/99/1 63/76/1 62/71/1
f 58/95/4 64/73/4 61/75/4
f 60/93/5 62/71/5 64/73/5
f 7/100/3 67/68/3 65/70/3
f 38/77/5 66/3/5 68/9/5
f 40/72/4 68/9/4 65/11/4
f 39/102/1 67/1/1 66/3/1
f 73/103/1 69/118/1 72/104/1
f 74/106/4 70/109/4 71/107/4
f 76/105/5 72/104/5 70/109/5
f 79/110/3 69/116/3 71/111/3
f 1/113/5 76/105/5 74/106/5
f 2/13/4 74/106/4 75/108/4
f 5/115/1 73/103/1 76/105/1
f 69/116/3 73/6/3 75/8/3
f 33/117/3 79/110/3 77/112/3
f 69/118/1 79/65/1 78/62/1
f 70/109/4 80/63/4 77/64/4
f 72/104/5 78/62/5 80/63/5
f 85/119/1 84/120/1 82/22/1
f 84/120/1 83/86/1 86/23/1
f 50/14/5 81/14/5 82/22/5
f 51/119/6 85/119/6 81/14/6
f 56/23/2 86/23/2 83/86/2
f 53/19/3 83/19/3 84/89/3
